#!OML:ASF H:\Punching\Project 1\Capture day 1\Session 1\female.ASF
:FULLY-SPECIFIED
:DEGREES
1886
root -0.233122 15.7716 2.99048 11.9874 -18.6994 -4.35874
lowerback -3.39471 -2.43727 4.73765
upperback -7.83074 -3.21931 1.79192
thorax -6.42421 -1.85359 -0.690019
lowerneck -10.3379 -6.17461 -0.987113
upperneck 25.4047 -7.96729 -3.00596
head 9.63431 -4.20978 -1.77881
rclavicle 9.2994e-014 4.87022e-015
rhumerus -40.8859 -12.9119 -67.1342
rradius 25.5252
rwrist 14.1504
rhand -11.2736 -6.81324
rfingers 7.12502
rthumb 14.7569 -36.2679
lclavicle 9.2994e-014 4.87022e-015
lhumerus -50.7201 13.1888 63.8937
lradius 46.2325
lwrist -10.4189
lhand -12.6767 16.6382
lfingers 7.12502
lthumb 13.4048 46.1869
rfemur -20.6521 9.11044 20.7416
rtibia 24.4592
rfoot -30.8939 -16.5858
rtoes -18.7933
lfemur -18.1585 -11.3947 -12.851
ltibia 28.2751
lfoot -34.1021 26.0847
ltoes -16.5951
1887
root -0.246244 15.7724 2.97731 11.9728 -18.431 -4.37395
lowerback -3.40998 -2.46861 4.73194
upperback -7.85338 -3.25829 1.85306
thorax -6.43787 -1.87091 -0.621911
lowerneck -10.3261 -6.19353 -1.03405
upperneck 25.4527 -7.99609 -2.96533
head 9.65313 -4.22276 -1.76178
rclavicle 7.34261e-015 -1.99779e-014
rhumerus -41.0159 -13.1497 -66.8088
rradius 25.2398
rwrist 14.984
rhand -11.2547 -6.97619
rfingers 7.12502
rthumb 14.7751 -36.4295
lclavicle 7.34261e-015 -1.99779e-014
lhumerus -50.194 12.7584 64.2793
lradius 47.8702
lwrist -9.39491
lhand -12.8613 16.9163
lfingers 7.12502
lthumb 13.2269 46.4767
rfemur -20.6387 9.11764 20.8243
rtibia 24.4329
rfoot -30.3869 -16.5583
rtoes -18.2017
lfemur -18.261 -11.3952 -12.747
ltibia 28.3309
lfoot -34.2711 26.0544
ltoes -16.774
1888
root -0.258591 15.7731 2.9648 11.9459 -18.1789 -4.36594
lowerback -3.42003 -2.49844 4.70974
upperback -7.87465 -3.29556 1.90337
thorax -6.45236 -1.88673 -0.555826
lowerneck -10.3074 -6.2098 -1.07678
upperneck 25.4979 -8.02229 -2.92416
head 9.6695 -4.23414 -1.74456
rclavicle -9.0447e-015 3.97569e-016
rhumerus -41.1376 -13.4067 -66.4732
rradius 24.9764
rwrist 15.7539
rhand -11.18 -7.19099
rfingers 7.12502
rthumb 14.8471 -36.639
lclavicle -9.0447e-015 3.97569e-016
lhumerus -49.6925 12.3269 64.6452
lradius 49.4812
lwrist -8.38444
lhand -12.9566 17.1528
lfingers 7.12502
lthumb 13.135 46.7191
rfemur -20.64 9.13947 20.8721
rtibia 24.4275
rfoot -29.6848 -16.4934
rtoes -17.3904
lfemur -18.3395 -11.395 -12.6754
ltibia 28.3587
lfoot -34.4242 26.0124
ltoes -16.9752
1889
root -0.270273 15.774 2.95295 11.9047 -17.9429 -4.32808
lowerback -3.42056 -2.53191 4.66117
upperback -7.88923 -3.33802 1.94045
thorax -6.46416 -1.90381 -0.488611
lowerneck -10.3147 -6.21656 -1.09692
upperneck 25.5529 -8.0382 -2.8876
head 9.69313 -4.23897 -1.73284
rclavicle -3.27995e-015 1.80894e-014
rhumerus -41.2325 -13.697 -66.1317
rradius 24.7251
rwrist 16.4321
rhand -11.0201 -7.37675
rfingers 7.12502
rthumb 15.0012 -36.8134
lclavicle -3.27995e-015 1.80894e-014
lhumerus -49.2066 11.9045 64.9822
lradius 51.0465
lwrist -7.43989
lhand -12.9859 17.3195
lfingers 7.12502
lthumb 13.1068 46.8876
rfemur -20.6613 9.18951 20.8748
rtibia 24.4465
rfoot -28.7134 -16.3993
rtoes -16.2667
lfemur -18.3901 -11.3985 -12.6415
ltibia 28.3494
lfoot -34.5539 25.955
ltoes -17.1889
1890
root -0.281468 15.7749 2.94191 11.8498 -17.7244 -4.25833
lowerback -3.41512 -2.56566 4.58469
upperback -7.90092 -3.38136 1.96347
thorax -6.47504 -1.92005 -0.42045
lowerneck -10.3285 -6.21857 -1.10822
upperneck 25.6124 -8.05012 -2.84758
head 9.71938 -4.24067 -1.72136
rclavicle -7.20097e-014 -1.11319e-014
rhumerus -41.3127 -13.9866 -65.8027
rradius 24.5109
rwrist 16.9582
rhand -10.7268 -7.5696
rfingers 7.12502
rthumb 15.2837 -36.9849
lclavicle -7.20097e-014 -1.11319e-014
lhumerus -48.7437 11.4836 65.2971
lradius 52.5562
lwrist -6.60133
lhand -12.9663 17.4364
lfingers 7.12502
lthumb 13.1257 47.0033
rfemur -20.7073 9.27378 20.8279
rtibia 24.4892
rfoot -27.395 -16.2736
rtoes -14.8001
lfemur -18.4096 -11.401 -12.647
ltibia 28.2969
lfoot -34.6527 25.8787
ltoes -17.4103
1891
root -0.292236 15.7759 2.93167 11.7869 -17.5243 -4.16376
lowerback -3.40648 -2.60224 4.48503
upperback -7.90988 -3.42903 1.97622
thorax -6.48382 -1.93733 -0.350035
lowerneck -10.3546 -6.21235 -1.10645
upperneck 25.6796 -8.05286 -2.80849
head 9.75015 -4.2369 -1.71206
rclavicle -4.67889e-014 5.36719e-015
rhumerus -41.3744 -14.2462 -65.5051
rradius 24.3422
rwrist 17.2826
rhand -10.296 -7.7891
rfingers 7.12502
rthumb 15.6986 -37.1723
lclavicle -4.67889e-014 5.36719e-015
lhumerus -48.3066 11.0752 65.5807
lradius 54
lwrist -5.91737
lhand -12.9113 17.4828
lfingers 7.12502
lthumb 13.1787 47.0462
rfemur -20.7881 9.39441 20.7362
rtibia 24.5528
rfoot -25.6623 -16.1207
rtoes -12.9741
lfemur -18.4008 -11.4036 -12.6823
ltibia 28.1986
lfoot -34.7136 25.7886
ltoes -17.62
1892
root -0.302679 15.7771 2.92207 11.7229 -17.3372 -4.0459
lowerback -3.39417 -2.64555 4.35938
upperback -7.92444 -3.48581 1.9852
thorax -6.49931 -1.95787 -0.268486
lowerneck -10.3905 -6.19799 -1.10171
upperneck 25.7632 -8.04445 -2.77208
head 9.78856 -4.22792 -1.70391
rclavicle -1.68222e-014 4.33351e-014
rhumerus -41.4205 -14.4156 -65.2692
rradius 24.2524
rwrist 17.3491
rhand -9.64649 -8.14539
rfingers 7.12502
rthumb 16.324 -37.4783
lclavicle -1.68222e-014 4.33351e-014
lhumerus -47.9077 10.6827 65.8334
lradius 55.3773
lwrist -5.39998
lhand -12.8278 17.4652
lfingers 7.12502
lthumb 13.2592 47.0234
rfemur -20.9174 9.51002 20.6103
rtibia 24.6362
rfoot -23.5173 -15.9534
rtoes -10.6503
lfemur -18.3716 -11.3925 -12.7434
ltibia 28.054
lfoot -34.7309 25.6769
ltoes -17.8213
1893
root -0.312869 15.7784 2.91305 11.6613 -17.1629 -3.90673
lowerback -3.38769 -2.69158 4.21309
upperback -7.94333 -3.547 1.98761
thorax -6.515 -1.97967 -0.182412
lowerneck -10.4316 -6.17905 -1.09685
upperneck 25.8583 -8.03017 -2.73478
head 9.83222 -4.21608 -1.69541
rclavicle 4.61677e-014 -1.80894e-014
rhumerus -41.4583 -14.4746 -65.1131
rradius 24.2535
rwrist 17.1093
rhand -8.8068 -8.61506
rfingers 7.12502
rthumb 17.1324 -37.8797
lclavicle 4.61677e-014 -1.80894e-014
lhumerus -47.543 10.3009 66.0574
lradius 56.6953
lwrist -5.04461
lhand -12.7183 17.3979
lfingers 7.12502
lthumb 13.3647 46.9493
rfemur -21.0964 9.57751 20.4675
rtibia 24.7421
rfoot -21.0163 -15.8313
rtoes -7.85816
lfemur -18.3257 -11.3621 -12.8266
ltibia 27.8635
lfoot -34.7002 25.5423
ltoes -18.0248
1894
root -0.322859 15.78 2.90441 11.6043 -17.002 -3.74583
lowerback -3.38711 -2.73952 4.04487
upperback -7.96981 -3.61148 1.98348
thorax -6.53416 -2.00215 -0.0909493
lowerneck -10.4564 -6.15785 -1.09946
upperneck 25.9489 -8.01358 -2.68979
head 9.872 -4.20314 -1.68195
rclavicle 4.77829e-014 9.93923e-016
rhumerus -41.4943 -14.4151 -65.0419
rradius 24.3426
rwrist 16.5575
rhand -7.82306 -9.17832
rfingers 7.12502
rthumb 18.0791 -38.3581
lclavicle 4.77829e-014 9.93923e-016
lhumerus -47.2158 9.92322 66.2566
lradius 57.9499
lwrist -4.82001
lhand -12.6142 17.252
lfingers 7.12502
lthumb 13.4651 46.7967
rfemur -21.318 9.56721 20.3237
rtibia 24.8751
rfoot -18.3992 -15.744
rtoes -4.81048
lfemur -18.2676 -11.3115 -12.9309
ltibia 27.6305
lfoot -34.6212 25.385
ltoes -18.2414
1895
root -0.332669 15.7817 2.89591 11.5469 -16.8521 -3.56167
lowerback -3.38468 -2.78718 3.85421
upperback -8.00637 -3.67598 1.97004
thorax -6.56393 -2.0238 0.00377064
lowerneck -10.459 -6.13492 -1.10926
upperneck 26.0325 -7.9959 -2.6357
head 9.90588 -4.18954 -1.66287
rclavicle 5.76476e-015 3.37934e-015
rhumerus -41.5422 -14.2676 -65.0339
rradius 24.4955
rwrist 15.7342
rhand -6.78289 -9.73088
rfingers 7.12502
rthumb 19.0796 -38.815
lclavicle 5.76476e-015 3.37934e-015
lhumerus -46.926 9.533 66.4401
lradius 59.1439
lwrist -4.69419
lhand -12.5081 17.0632
lfingers 7.12502
lthumb 13.5673 46.6012
rfemur -21.5617 9.48418 20.1872
rtibia 25.0425
rfoot -15.965 -15.7064
rtoes -1.82431
lfemur -18.1948 -11.2487 -13.0573
ltibia 27.3578
lfoot -34.5005 25.2109
ltoes -18.4827
1896
root -0.342227 15.7835 2.88741 11.4853 -16.7176 -3.37008
lowerback -3.37924 -2.83075 3.6586
upperback -8.03959 -3.73543 1.9488
thorax -6.59155 -2.04273 0.0929914
lowerneck -10.4412 -6.11517 -1.12602
upperneck 26.0913 -7.98351 -2.57203
head 9.92769 -4.17815 -1.63822
rclavicle 1.19519e-014 1.03368e-014
rhumerus -41.5873 -14.0956 -65.0677
rradius 24.6881
rwrist 14.7416
rhand -5.77122 -10.2181
rfingers 7.12502
rthumb 20.0523 -39.2034
lclavicle 1.19519e-014 1.03368e-014
lhumerus -46.6606 9.14298 66.6119
lradius 60.2893
lwrist -4.63606
lhand -12.4062 16.8508
lfingers 7.12502
lthumb 13.6655 46.3822
rfemur -21.7992 9.37983 20.0721
rtibia 25.2456
rfoot -13.957 -15.743
rtoes 0.787043
lfemur -18.101 -11.1795 -13.1917
ltibia 27.0537
lfoot -34.349 25.0278
ltoes -18.7444
1897
root -0.351596 15.7856 2.87848 11.4131 -16.6004 -3.17083
lowerback -3.35441 -2.8739 3.45184
upperback -8.06544 -3.79395 1.92324
thorax -6.62147 -2.06045 0.184649
lowerneck -10.42 -6.09306 -1.13985
upperneck 26.1218 -7.96856 -2.50452
head 9.93872 -4.1649 -1.61128
rclavicle 2.23881e-014 9.74045e-015
rhumerus -41.616 -13.8989 -65.1443
rradius 24.8956
rwrist 13.6564
rhand -4.86019 -10.5577
rfingers 7.12502
rthumb 20.9277 -39.4488
lclavicle 2.23881e-014 9.74045e-015
lhumerus -46.4089 8.76612 66.7706
lradius 61.3722
lwrist -4.62902
lhand -12.3051 16.619
lfingers 7.12502
lthumb 13.763 46.1438
rfemur -22.0045 9.3223 19.9628
rtibia 25.4788
rfoot -12.5276 -15.8884
rtoes 2.84429
lfemur -17.9861 -11.122 -13.3354
ltibia 26.7311
lfoot -34.1871 24.8517
ltoes -19.0109
1898
root -0.360516 15.7878 2.8691 11.3269 -16.5023 -2.97498
lowerback -3.30104 -2.91399 3.24621
upperback -8.08039 -3.84748 1.89707
thorax -6.65573 -2.07548 0.276175
lowerneck -10.4046 -6.06887 -1.15114
upperneck 26.1285 -7.94966 -2.43907
head 9.94207 -4.14974 -1.58442
rclavicle -1.81391e-014 9.54166e-015
rhumerus -41.6231 -13.7189 -65.2388
rradius 25.095
rwrist 12.6124
rhand -4.09554 -10.7416
rfingers 7.12502
rthumb 21.6622 -39.5498
lclavicle -1.81391e-014 9.54166e-015
lhumerus -46.1678 8.4059 66.928
lradius 62.392
lwrist -4.64435
lhand -12.2085 16.4003
lfingers 7.12502
lthumb 13.8561 45.9188
rfemur -22.1581 9.35189 19.8526
rtibia 25.7277
rfoot -11.6912 -16.1488
rtoes 4.34704
lfemur -17.8512 -11.0891 -13.481
ltibia 26.4096
lfoot -34.0382 24.6999
ltoes -19.2517
